<svg width="80" height="76" viewBox="0 0 80 76" fill="none" xmlns="http://www.w3.org/2000/svg">
<path d="M63.333 70.6107H16.6663C15.7823 70.6107 14.9344 70.2595 14.3093 69.6344C13.6842 69.0093 13.333 68.1615 13.333 67.2774V37.2774H5.91965C5.00561 37.2774 4.57065 36.1523 5.24699 35.5375L37.7563 5.98407C38.37 5.42566 39.1699 5.11621 39.9997 5.11621C40.8294 5.11621 41.6293 5.42566 42.243 5.98407L74.7524 35.5375C75.4287 36.1523 74.9937 37.2774 74.0797 37.2774H66.6663V67.2774C66.6663 68.1615 66.3151 69.0093 65.69 69.6344C65.0649 70.2595 64.2171 70.6107 63.333 70.6107ZM43.333 63.9441H59.9997V31.1341L39.9997 12.9541L19.9997 31.1341V63.9441H36.6663V43.9441H43.333V63.9441Z" fill="#3273D1"/>
</svg>
