<svg width="81" height="76" viewBox="0 0 81 76" fill="none" xmlns="http://www.w3.org/2000/svg">
<path d="M63.832 70.4945H17.1654C16.2813 70.4945 15.4335 70.1433 14.8083 69.5182C14.1832 68.8931 13.832 68.0452 13.832 67.1612V37.1612H6.41868C5.50464 37.1612 5.06967 36.0361 5.74601 35.4212L38.2554 5.86786C38.8691 5.30945 39.669 5 40.4987 5C41.3284 5 42.1283 5.30945 42.742 5.86786L75.2514 35.4212C75.9277 36.0361 75.4928 37.1612 74.5787 37.1612H67.1654V67.1612C67.1654 68.0452 66.8142 68.8931 66.189 69.5182C65.5639 70.1433 64.7161 70.4945 63.832 70.4945ZM43.832 63.8279H60.4987V31.0179L40.4987 12.8379L20.4987 31.0179V63.8279H37.1654V43.8279H43.832V63.8279Z" fill="#353535"/>
</svg>
