<svg width="74" height="54" viewBox="0 0 74 54" fill="none" xmlns="http://www.w3.org/2000/svg">
<path d="M50.333 0.116211C51.2171 0.116211 52.0649 0.467401 52.69 1.09252C53.3152 1.71764 53.6663 2.56549 53.6663 3.44954V17.4495L71.043 5.28288C71.2929 5.10773 71.586 5.00454 71.8905 4.98455C72.195 4.96456 72.4991 5.02855 72.7697 5.16953C73.0403 5.31051 73.2671 5.52307 73.4252 5.78405C73.5833 6.04503 73.6667 6.34441 73.6663 6.64954V46.9162C73.6667 47.2213 73.5833 47.5207 73.4252 47.7817C73.2671 48.0427 73.0403 48.2552 72.7697 48.3962C72.4991 48.5372 72.195 48.6012 71.8905 48.5812C71.586 48.5612 71.2929 48.458 71.043 48.2829L53.6663 36.1162V50.1162C53.6663 51.0003 53.3152 51.8481 52.69 52.4732C52.0649 53.0984 51.2171 53.4495 50.333 53.4495H3.66634C2.78229 53.4495 1.93444 53.0984 1.30932 52.4732C0.684197 51.8481 0.333008 51.0003 0.333008 50.1162V3.44954C0.333008 2.56549 0.684197 1.71764 1.30932 1.09252C1.93444 0.467401 2.78229 0.116211 3.66634 0.116211H50.333ZM46.9997 6.78288H6.99967V46.7829H46.9997V6.78288ZM21.6663 16.2129C21.92 16.2122 22.1686 16.2839 22.383 16.4195L36.8997 25.6595C37.0882 25.7801 37.2434 25.9462 37.3509 26.1425C37.4584 26.3388 37.5147 26.5591 37.5147 26.7829C37.5147 27.0067 37.4584 27.2269 37.3509 27.4232C37.2434 27.6195 37.0882 27.7856 36.8997 27.9062L22.383 37.1495C22.1808 37.2784 21.9476 37.3504 21.708 37.3579C21.4683 37.3654 21.231 37.3081 21.0212 37.1921C20.8114 37.0761 20.6367 36.9056 20.5156 36.6987C20.3945 36.4918 20.3314 36.256 20.333 36.0162V17.5495C20.333 16.8129 20.933 16.2162 21.6663 16.2162V16.2129ZM66.9997 16.2495L53.6663 25.5829V27.9762L66.9997 37.3095V16.2495Z" fill="#353535"/>
</svg>
