<svg width="60" height="67" viewBox="0 0 60 67" fill="none" xmlns="http://www.w3.org/2000/svg">
<path d="M26.6667 43.4505H33.3333V50.1172H26.6667V43.4505ZM33.3333 37.9672V40.1172H26.6667V35.1172C26.6667 34.2331 27.0179 33.3853 27.643 32.7602C28.2681 32.135 29.1159 31.7839 30 31.7839C30.9469 31.7838 31.8744 31.5148 32.6744 31.0083C33.4745 30.5017 34.1142 29.7784 34.5192 28.9225C34.9243 28.0665 35.0779 27.1132 34.9623 26.1733C34.8466 25.2335 34.4665 24.3458 33.8661 23.6136C33.2657 22.8813 32.4697 22.3346 31.5707 22.0371C30.6718 21.7396 29.7068 21.7034 28.7881 21.9329C27.8694 22.1623 27.0347 22.648 26.3812 23.3332C25.7277 24.0185 25.2823 24.8753 25.0967 25.8039L18.5567 24.4939C18.9621 22.4675 19.8984 20.5851 21.2697 19.0391C22.6411 17.4932 24.3984 16.3391 26.362 15.6949C28.3255 15.0507 30.425 14.9395 32.4456 15.3726C34.4663 15.8057 36.3357 16.7676 37.8627 18.1599C39.3898 19.5523 40.5197 21.3252 41.137 23.2974C41.7544 25.2696 41.8369 27.3703 41.3762 29.3849C40.9155 31.3994 39.9282 33.2555 38.5151 34.7634C37.102 36.2713 35.3138 37.3769 33.3333 37.9672ZM40 6.78385H6.66667V60.1172H53.3333V20.1172H40V6.78385ZM0 3.42385C0 1.59719 1.49 0.117188 3.33 0.117188H43.3333L60 16.7839V63.4272C60.0031 63.8649 59.9199 64.299 59.7552 64.7046C59.5905 65.1102 59.3476 65.4794 59.0402 65.7911C58.7328 66.1028 58.3671 66.3509 57.9639 66.5212C57.5606 66.6916 57.1277 66.7808 56.69 66.7839H3.31C2.43459 66.7777 1.59672 66.4275 0.977392 65.8088C0.35806 65.1901 0.00698217 64.3526 0 63.4772V3.42385Z" fill="#353535"/>
</svg>
