<svg width="68" height="67" viewBox="0 0 68 67" fill="none" xmlns="http://www.w3.org/2000/svg">
<path d="M34.0003 66.7839C15.5903 66.7839 0.666992 51.8605 0.666992 33.4505C0.666992 15.0405 15.5903 0.117188 34.0003 0.117188C52.4103 0.117188 67.3337 15.0405 67.3337 33.4505C67.3337 51.8605 52.4103 66.7839 34.0003 66.7839ZM34.0003 60.1172C41.0728 60.1172 47.8555 57.3077 52.8565 52.3067C57.8575 47.3057 60.667 40.523 60.667 33.4505C60.667 26.3781 57.8575 19.5953 52.8565 14.5943C47.8555 9.59337 41.0728 6.78385 34.0003 6.78385C26.9279 6.78385 20.1451 9.59337 15.1441 14.5943C10.1432 19.5953 7.33366 26.3781 7.33366 33.4505C7.33366 40.523 10.1432 47.3057 15.1441 52.3067C20.1451 57.3077 26.9279 60.1172 34.0003 60.1172ZM30.667 43.4505H37.3337V50.1172H30.667V43.4505ZM37.3337 37.9672V40.1172H30.667V35.1172C30.667 34.2331 31.0182 33.3853 31.6433 32.7602C32.2684 32.135 33.1163 31.7839 34.0003 31.7839C34.9473 31.7838 35.8747 31.5148 36.6747 31.0083C37.4748 30.5017 38.1145 29.7784 38.5196 28.9225C38.9246 28.0665 39.0782 27.1132 38.9626 26.1733C38.847 25.2335 38.4668 24.3458 37.8664 23.6136C37.266 22.8813 36.47 22.3346 35.5711 22.0371C34.6721 21.7396 33.7071 21.7034 32.7884 21.9329C31.8697 22.1623 31.035 22.648 30.3815 23.3332C29.7281 24.0185 29.2826 24.8753 29.097 25.8039L22.557 24.4939C22.9624 22.4675 23.8987 20.5851 25.2701 19.0391C26.6414 17.4932 28.3987 16.3391 30.3623 15.6949C32.3259 15.0507 34.4253 14.9395 36.4459 15.3726C38.4666 15.8057 40.336 16.7676 41.8631 18.1599C43.3901 19.5523 44.5201 21.3252 45.1374 23.2974C45.7547 25.2696 45.8372 27.3703 45.3765 29.3849C44.9159 31.3994 43.9285 33.2555 42.5154 34.7634C41.1023 36.2713 39.3141 37.3769 37.3337 37.9672Z" fill="#1A1A1A"/>
</svg>
